# xmcd CD database file
#
# Track frame offsets:
#	182
#	14067
#	29895
#	40017
#	57500
#	75912
#	91482
#	108190
#	116447
#	129225
#	149125
#	166887
#	181740
#	200012
#	227087
#
# Disc length: 3185 seconds
#
# Revision: 5
# Processed by: cddbd v1.5.2PL0 Copyright (c) Steve Scherf et al.
# Submitted via: CDex 1.78
#
DISCID=ca0c6f0f
DTITLE=King Kurt - Live and Rockin
DYEAR=1991
DGENRE=Psychobilly
TTITLE0=She's as hairy
TTITLE1=Road to rack 'n' ruin
TTITLE2=Kneebone KNock
TTITLE3=Destination Zululand
TTITLE4=Billy
TTITLE5=Banana Banana
TTITLE6=Ghost Riders in the Sky
TTITLE7=The Shag
TTITLE8=Lonesome Train
TTITLE9=Alcoholic Rat
TTITLE10=Horatio
TTITLE11=Mac the Knife
TTITLE12=Slammers
TTITLE13=Gather you limbs
TTITLE14=Nervous Breakdown
EXTD=YEAR: 1991
EXTT0=
EXTT1=
EXTT2=
EXTT3=
EXTT4=
EXTT5=
EXTT6=
EXTT7=
EXTT8=
EXTT9=
EXTT10=
EXTT11=
EXTT12=
EXTT13=
EXTT14=
PLAYORDER=
